HIERARCHY
ROOT Hip
{
   OFFSET 0.00000 0.00000 0.00000
   CHANNELS 6 Xposition Yposition Zposition Zrotation Yrotation Xrotation
   JOINT Head
   {
      OFFSET 0.000000 28.507201 0.000000
      CHANNELS 3 Zrotation Yrotation Xrotation
      End Site
      {
         OFFSET 0.000000 16.984801 0.000000
      }
      JOINT LeftShoulder
      {
         OFFSET 9.425520 0.000000 0.000000
         CHANNELS 3 Zrotation Yrotation Xrotation
         JOINT LeftHand
         {
            OFFSET 0.000000 -13.773600 0.000000
            CHANNELS 3 Zrotation Yrotation Xrotation
            End Site
            {
               OFFSET 0.000000 -15.085200 0.000000
            }
         }
      }
      JOINT RightShoulder
      {
         OFFSET -10.045440 0.000000 0.000000
         CHANNELS 3 Zrotation Yrotation Xrotation
         JOINT RghtHand
         {
            OFFSET 0.000000 -16.503601 0.000000
            CHANNELS 3 Zrotation Yrotation Xrotation
            End Site
            {
               OFFSET 0.000000 -11.304960 0.000000
            }
         }
      }
   }
   JOINT LeftHip
   {
      OFFSET 9.973560 0.000000 0.000000
      CHANNELS 3 Zrotation Yrotation Xrotation
      JOINT LeftKnee
      {
         OFFSET 0.000000 -28.113598 0.000000
         CHANNELS 3 Zrotation Yrotation Xrotation
         JOINT LeftFoot
         {
            OFFSET 0.000000 -21.435601 0.000000
            CHANNELS 3 Zrotation Yrotation Xrotation
            End Site
            {
               OFFSET 0.000000 0.000000 13.969201
            }
         }
      }
   }
   JOINT RightHip
   {
      OFFSET -9.973560 0.000000 0.000000
      CHANNELS 3 Zrotation Yrotation Xrotation
      JOINT RightKnee
      {
         OFFSET 0.000000 -25.443601 0.000000
         CHANNELS 3 Zrotation Yrotation Xrotation
         JOINT RightFoot
         {
            OFFSET 0.000000 -21.820800 0.000000
            CHANNELS 3 Zrotation Yrotation Xrotation
            End Site
            {
               OFFSET 0.000000 0.000000 14.031600
            }
         }
      }
   }
}
MOTION
Frames: 27
Frame Time: 0.016670
7.004318 79.808120 2.346438 34.507608 26.237031 257.531955 -4.614035 12.244679 12.496192 -10.351252 -72.759963 78.013430 60.817555 182.440500 136.485607 -35.257180 -10.903887 29.379444 -92.913857 18.894719 54.337942 -86.793051 -4.151085 73.388525 84.851665 -52.865548 2.637581 -9.048647 -48.631903 -39.454803 -110.558004 -22.559210 84.638222 40.196476 -45.669616 65.038680 -56.518381 -48.264920 1.388649
8.919256 79.936775 1.512757 32.470436 30.024101 258.637653 -5.404270 11.998227 12.517240 -9.109230 -66.782926 77.794789 62.128835 184.098597 137.776035 -33.605040 -10.847578 28.635949 -91.654896 17.751443 54.482684 -85.629658 -1.729270 74.043711 80.184406 -53.622750 1.799097 -9.043579 -48.849516 -39.691308 -111.967230 -18.838154 83.682358 38.963371 -44.652222 63.360147 -57.110712 -48.562409 0.874146
10.859034 79.877466 0.662310 30.441368 33.983299 259.552243 -6.375818 11.640757 12.613402 -7.538453 -61.793835 78.129345 62.514700 186.720488 140.797601 -31.861118 -10.949218 26.754841 -91.034298 17.409746 54.895921 -83.531492 1.048147 74.802736 75.719778 -53.873182 1.233869 -8.865316 -48.446160 -39.379562 -113.046714 -14.931680 82.557084 38.248472 -43.045437 61.595459 -58.017669 -48.380361 -0.360044
12.896812 79.593352 -0.241671 28.536641 37.591893 260.866726 -6.471673 9.841882 11.194603 -6.907388 -55.454524 77.393352 65.267286 187.495960 144.027393 -32.950240 -9.840365 24.606120 -89.812534 16.287537 55.052534 -80.119847 3.628944 75.403294 71.374036 -54.374060 1.261634 -8.657868 -48.193053 -39.048000 -113.053633 -12.057060 80.958704 36.975174 -41.204602 60.442270 -58.464541 -48.697391 -0.704636
14.983929 79.078864 -1.190265 26.607260 41.425668 262.033487 -7.455667 9.380098 9.994978 -5.785378 -52.845529 76.697267 68.359860 187.873301 146.509525 -32.917967 -9.889524 23.513742 -87.783804 14.206594 55.540964 -77.534026 6.068945 76.566714 68.059659 -54.746012 1.167378 -8.654217 -48.004806 -39.024836 -113.055019 -9.092913 79.139367 36.028264 -40.092162 59.708557 -58.099918 -48.928757 0.236968
17.126342 78.305954 -2.177758 25.089269 45.702606 263.250736 -9.392955 12.665070 10.114146 -5.055027 -57.633498 76.451503 67.574463 190.693568 150.637199 -32.070689 -11.518289 25.200519 -85.287705 11.300019 57.327799 -75.725454 8.470350 77.778137 65.641000 -55.260117 0.982695 -8.470801 -48.114352 -38.868701 -112.601542 -6.170240 76.367689 35.538611 -39.746749 59.504895 -56.790475 -49.216017 2.768502
19.282597 77.277387 -3.201460 23.784466 49.057991 265.643679 -10.542149 11.642142 7.173528 -5.973542 -53.986167 75.688687 72.812562 189.680009 155.472823 -34.418536 -9.780326 25.429494 -82.833324 8.597280 57.840091 -74.007278 9.998780 79.339068 64.504170 -54.763938 0.965766 -8.003691 -47.413326 -37.977266 -110.652848 -4.662764 74.115913 35.372419 -39.407664 58.763389 -55.122994 -49.596606 5.935767
21.436035 75.993413 -4.269730 23.039994 52.292642 268.388732 -11.949579 12.202959 4.888719 -6.294728 -52.559146 74.917709 76.627926 189.214641 158.843371 -35.469114 -8.887255 27.356060 -80.422711 6.004520 59.317823 -71.390462 11.723287 80.545286 63.773306 -53.783761 1.264303 -6.530212 -46.308860 -35.531867 -106.996102 -3.167798 71.432741 36.110657 -38.800881 57.602694 -53.789027 -50.199418 8.769332
23.581631 74.401964 -5.376271 23.818224 55.886326 272.407287 -13.677973 13.936090 3.184011 -6.379404 -52.571662 74.206959 79.300149 189.057082 161.355064 -34.710711 -9.328359 29.350703 -78.913280 4.556282 61.334464 -70.961383 13.443107 81.932511 65.035012 -51.311301 0.418955 -4.964399 -44.306375 -32.657242 -100.835517 -1.481043 67.598819 37.146923 -38.716398 56.552587 -53.295816 -52.132174 10.973499
25.722277 72.504853 -6.583897 24.013232 59.569823 276.165995 -15.410312 15.571781 2.520917 -7.779210 -54.251192 72.739254 80.483917 189.105098 163.714744 -33.501173 -10.978114 30.556282 -77.646499 3.263394 63.649932 -68.551849 14.658312 82.934609 64.932730 -51.130748 1.028788 -4.317754 -44.055403 -31.617280 -90.616024 0.937951 63.189864 37.127993 -39.883698 56.026556 -52.776858 -55.462010 13.959427
27.787404 70.342902 -7.851320 26.415386 63.407856 282.611726 -17.392754 16.047685 0.283581 -5.920727 -51.222782 74.134545 83.283235 188.720777 164.762249 -31.570190 -11.640660 30.567316 -77.595088 3.605033 64.356085 -63.917320 15.235888 81.615242 62.902088 -53.935344 3.212599 -2.904022 -46.348489 -30.247493 -81.550854 4.303874 60.661034 40.121146 -42.876181 51.906036 -53.248592 -57.657472 14.678744
29.792797 67.919907 -9.180517 31.179165 66.897762 291.432451 -19.326963 16.888462 -2.307545 -5.429634 -51.263496 73.992921 84.997189 188.793901 166.740504 -30.995586 -12.224681 30.769162 -77.476297 3.842699 65.595566 -62.645532 15.640740 80.541092 62.530532 -55.174275 3.430740 -0.982576 -47.671053 -27.934174 -71.004550 9.510361 57.969168 44.985070 -48.329831 45.691107 -52.712125 -58.897541 16.256134
31.678791 65.297150 -10.480283 37.161085 69.924348 301.921382 -21.482039 18.172709 -5.280616 -5.250173 -54.368104 74.057931 85.293667 189.168660 169.249793 -30.433523 -12.891747 32.381903 -76.584965 2.942788 67.265472 -61.062185 15.383900 79.244271 61.535257 -56.926041 3.461788 1.590970 -49.603600 -24.856556 -60.076158 14.867990 56.986293 50.964081 -55.837059 35.793835 -51.929337 -59.422536 17.741128
34.753456 62.118362 -12.717624 49.919705 75.653969 321.523724 -26.456067 18.630555 -8.848691 -2.668651 -59.011987 77.236175 80.699935 184.153265 172.872470 -34.861487 -13.727698 36.716949 -72.815083 2.573996 69.746552 -55.721452 13.653577 77.220760 58.940257 -59.471666 4.709751 3.047638 -51.748645 -23.841113 -51.557765 18.124790 60.244010 60.789052 -56.708083 19.356765 -56.463818 -59.171418 17.608772
36.342680 59.019302 -14.174496 55.738435 77.985003 333.276731 -28.275998 19.472514 -12.800942 -2.264789 -63.029682 78.281256 81.643450 184.146913 175.692300 -37.295152 -11.615616 41.540620 -68.899014 -4.888509 73.049058 -54.410260 10.788344 76.663519 57.745315 -61.736659 3.979223 3.040576 -53.824411 -24.045538 -41.996040 18.505807 60.394138 67.829830 -59.788430 6.779505 -55.595537 -58.550069 18.602792
37.790338 55.687245 -15.615858 65.288644 81.056840 348.653317 -30.850435 19.042806 -15.846334 -1.443201 -67.785830 79.701976 82.121584 184.080824 178.124845 -33.645314 -9.041944 45.694785 -65.979019 -10.839637 75.217930 -54.990119 7.143722 76.804022 58.264929 -62.945616 2.402601 2.743370 -55.304346 -24.562108 -34.371988 17.168138 60.460350 74.697619 -58.437692 -5.206247 -54.711543 -59.217474 20.434944
39.139990 52.136459 -17.042728 238.986516 94.889585 168.216166 -24.116587 11.830566 -18.953305 -5.741482 -58.228162 77.446040 88.994435 183.964629 184.777599 -33.311061 -0.308397 41.351225 -67.897988 -6.283297 73.651029 -56.031508 3.233514 79.319219 61.734774 -60.655140 1.500266 1.757660 -53.664936 -25.596737 -27.014650 12.038701 59.353934 75.498199 -56.367383 -11.800713 -53.213765 -59.372232 22.824298
40.420741 48.384103 -18.475404 47.827382 91.713984 342.528687 -22.114167 5.175175 -20.653377 -7.538412 -55.996678 77.646560 91.854754 183.996608 189.596940 -26.735051 4.920917 36.745359 -74.281456 7.495986 70.076026 -56.454468 -1.380305 82.572889 66.635913 -57.905251 1.363167 0.995932 -51.823794 -26.504909 -23.105791 5.500780 59.090391 78.096540 -53.010994 -17.643973 -51.207021 -59.639887 25.905070
41.632065 44.359259 -20.026104 59.906223 99.996025 361.052460 -17.081118 -2.102989 -23.048680 -11.925791 -52.213750 76.262627 94.499041 184.070975 196.144400 -28.500165 11.951637 37.770164 -77.077052 11.470258 63.731839 -59.935757 -7.800058 89.115302 73.237912 -56.852927 3.010135 -4.887397 -50.641686 -33.845694 -21.307759 -5.596985 58.880240 77.660303 -50.138154 -20.065101 -52.509323 -59.067852 24.997803
42.890481 40.246252 -21.514034 30.982035 101.266632 339.173752 -19.634490 1.614283 -24.272119 -11.439793 -59.816761 78.093193 94.095001 183.440344 199.163767 -26.569970 13.621213 45.492133 -79.126457 13.684763 61.534663 -66.111600 -12.882065 87.973117 75.901754 -57.105805 4.599592 -11.936357 -50.877372 -43.138430 -25.761377 -9.911261 56.947788 76.311586 -48.447338 -17.819598 -64.998580 -61.884232 11.514827
44.344272 36.783361 -23.094248 25.036861 104.938541 336.939871 -17.735517 3.130781 -21.738376 -13.713771 -64.270017 76.513548 94.335465 182.937615 202.023649 -30.017992 18.493138 53.866451 -77.651997 10.515135 61.154290 -74.775784 -10.683829 91.420074 84.933464 -58.396068 10.326625 -15.103210 -53.044827 -48.409399 -32.996985 -11.654465 61.848504 82.975645 -42.898188 -18.566208 -71.578784 -65.280107 4.611919
45.898403 35.071725 -24.544906 27.826686 110.870854 338.229028 -14.773790 1.483413 -14.223168 -17.832147 -68.304870 72.718613 94.736404 182.463764 205.120717 -30.970431 21.673208 59.725544 -76.857284 8.796237 61.195824 -81.926521 -3.549307 96.314813 92.230824 -59.976820 16.346326 -13.355044 -54.829408 -47.653298 -43.231542 -10.500278 74.758756 93.548607 -34.948760 -19.539706 -70.638595 -62.211487 5.604605
47.356109 33.534219 -25.967922 27.260511 115.336746 335.364447 -11.125755 1.436261 -5.695112 -21.712538 -76.521416 68.351294 92.047359 180.782827 206.664845 -29.398917 22.360832 65.126209 -76.081525 7.851519 62.636578 -86.959400 4.709649 97.670681 97.727672 -62.015242 20.999823 -10.902233 -56.488998 -46.129137 -49.883358 -5.222319 84.173824 100.860290 -29.982082 -18.877354 -69.623410 -60.267192 7.078206
48.424682 32.366504 -27.279496 25.673590 118.684823 333.017266 -7.947507 1.337544 -1.230213 -24.859971 -81.714751 65.439708 91.272105 179.851366 210.013851 -27.246554 20.459186 70.323430 -76.266411 8.193274 63.113769 -89.598838 9.024217 97.758039 100.091573 -63.898325 22.949232 -9.697524 -57.817203 -46.108524 -53.274963 -1.348874 88.316784 103.982718 -28.310022 -18.635676 -69.361937 -60.838865 8.054540
49.328088 31.504333 -28.324589 24.314796 120.937406 331.858756 -5.708803 1.423939 0.878067 -26.877290 -85.281278 63.547827 91.480166 179.543202 212.517812 -26.032585 17.772600 74.534794 -76.838535 8.751993 63.717564 -89.313090 9.679624 97.567736 99.781578 -65.774032 23.414554 -9.843317 -59.936857 -48.074782 -53.891835 1.167562 89.730572 105.705701 -27.945634 -19.135849 -69.292802 -62.364395 8.677198
50.186071 31.026175 -29.156279 24.385083 123.181751 332.184256 -4.025302 0.538621 2.141514 -28.032503 -87.434686 62.404297 92.304119 179.737193 213.813048 -25.744168 15.754984 77.791654 -76.627674 7.659162 64.121550 -88.769783 10.586388 98.023248 100.245990 -66.972122 23.781332 -9.389958 -60.832923 -48.581438 -53.555838 2.893703 91.707386 106.869702 -27.144750 -19.910237 -68.467852 -62.335298 9.938162
51.018690 30.937678 -29.949545 23.642947 124.470021 331.585740 -2.716862 0.045224 3.376983 -28.792137 -88.825422 61.583205 93.379068 180.229322 213.817924 -26.196239 14.585690 80.321085 -75.904152 5.741265 64.706726 -88.642899 12.400017 97.433448 100.786866 -67.599830 23.047136 -7.984448 -60.344735 -47.367369 -52.359776 4.635028 92.780374 107.145669 -26.573614 -21.270956 -67.767436 -62.297985 11.036491
